<svg xmlns="http://www.w3.org/2000/svg" viewBox="0 0 240.15 240.18"><g id="Layer_2" data-name="Layer 2"><g id="Layer_1-2" data-name="Layer 1"><path d="M120.11,240.14c-23,0-46,.1-69,0C26.88,240,7.52,224.79,1.67,201.31A51.94,51.94,0,0,1,.19,189c-.1-45.81-.4-91.62,0-137.42C.54,21.42,21.83.4,51.73.22q68-.42,135.92,0C212.87.42,232.28,14,238.47,38.88a56.56,56.56,0,0,1,1.59,13.28q.16,68,.05,135.93c0,30-22,52-52,52C165.42,240.19,142.76,240.14,120.11,240.14ZM100.48,80.37V189.73h29.64c0-4.73-.06-9.06,0-13.39.3-15.93.47-31.88,1-47.81.33-9.17,8.38-17.39,17.26-18.37,9.32-1,16.94,4.28,19.68,14.24A50.32,50.32,0,0,1,170,137c.22,15.82.08,31.64.08,47.46v5.33h30c0-25,.65-49.64-.26-74.24-.49-13.4-6.63-24.84-19.35-31.45-15.28-7.93-34.67-4.36-46.83,8.63A39.2,39.2,0,0,0,131.13,96L130,95.32V80.37ZM79.9,80.5H50.51V189.88H79.9ZM65.25,67.38c10.12.1,17.65-7.58,17.58-17C82.74,39,75.31,32.24,64.71,32.16A17.14,17.14,0,0,0,47.37,49.53C47.54,60.4,55,67.49,65.25,67.38Z"/></g></g></svg>