<?xml version="1.0" encoding="utf-8"?>
<!-- Generator: Adobe Illustrator 24.3.0, SVG Export Plug-In . SVG Version: 6.00 Build 0)  -->
<svg version="1.1" id="Layer_1" xmlns="http://www.w3.org/2000/svg" xmlns:xlink="http://www.w3.org/1999/xlink" x="0px" y="0px"
	 viewBox="0 0 240.1 240.2" style="enable-background:new 0 0 240.1 240.2;" xml:space="preserve">
<g>
	<polygon points="41.6,74.5 41.6,165.1 95.1,116 	"/>
	<polygon points="187.6,66.1 52.5,66.1 120.1,118.4 	"/>
	<path d="M134.6,124.1l-10.6,8.2c-2.3,1.8-5.5,1.8-7.8,0l-10.6-8.2c-0.2,0.4-0.5,0.7-0.8,1.1l-53.3,49h137.2l-53.3-49
		C135,124.8,134.8,124.5,134.6,124.1z"/>
	<path d="M240.1,52.2c0-4.5-0.5-8.9-1.6-13.3C232.3,14,212.9,0.4,187.7,0.2c-45.3-0.3-90.6-0.3-135.9,0C21.8,0.4,0.5,21.4,0.2,51.6
		c-0.4,45.8-0.1,91.6,0,137.4c0,4.1,0.5,8.3,1.5,12.3c5.9,23.5,25.2,38.7,49.4,38.8c23,0.1,46,0,69,0c22.7,0,45.3,0,68-0.1
		c30,0,52-22,52-52C240.2,142.8,240.2,97.5,240.1,52.2z M211.6,167.3c0,11.2-8.8,20.2-19.6,20.3H48.2c-10.8,0-19.6-9.1-19.6-20.3
		V72.8c0-11.2,8.8-20.2,19.6-20.3H192c10.8,0,19.6,9.1,19.6,20.3V167.3z"/>
	<polygon points="198.5,165.1 198.5,74.5 145,116 	"/>
</g>
</svg>
